<mxfile host="Electron" agent="Mozilla/5.0 (Windows NT 10.0; Win64; x64) AppleWebKit/537.36 (KHTML, like Gecko) draw.io/24.7.17 Chrome/128.0.6613.36 Electron/32.0.1 Safari/537.36" version="24.7.17">
  <diagram id="C5RBs43oDa-KdzZeNtuy" name="Page-1">
    <mxGraphModel dx="1434" dy="836" grid="1" gridSize="10" guides="1" tooltips="1" connect="1" arrows="1" fold="1" page="1" pageScale="1" pageWidth="827" pageHeight="1169" math="0" shadow="0">
      <root>
        <mxCell id="WIyWlLk6GJQsqaUBKTNV-0" />
        <mxCell id="WIyWlLk6GJQsqaUBKTNV-1" parent="WIyWlLk6GJQsqaUBKTNV-0" />
        <mxCell id="WIyWlLk6GJQsqaUBKTNV-2" value="" style="rounded=0;html=1;jettySize=auto;orthogonalLoop=1;fontSize=11;endArrow=block;endFill=0;endSize=8;strokeWidth=1;shadow=0;labelBackgroundColor=none;edgeStyle=orthogonalEdgeStyle;" parent="WIyWlLk6GJQsqaUBKTNV-1" source="WIyWlLk6GJQsqaUBKTNV-3" target="WIyWlLk6GJQsqaUBKTNV-6" edge="1">
          <mxGeometry relative="1" as="geometry" />
        </mxCell>
        <mxCell id="WIyWlLk6GJQsqaUBKTNV-3" value="&lt;font style=&quot;font-size: 18px;&quot;&gt;FullyShardedDataParallel&lt;/font&gt;" style="rounded=1;whiteSpace=wrap;html=1;fontSize=12;glass=0;strokeWidth=1;shadow=0;fillColor=#f5f5f5;fontColor=#333333;strokeColor=#666666;" parent="WIyWlLk6GJQsqaUBKTNV-1" vertex="1">
          <mxGeometry x="230" y="50" width="240" height="40" as="geometry" />
        </mxCell>
        <mxCell id="WIyWlLk6GJQsqaUBKTNV-4" value="Yes" style="rounded=0;html=1;jettySize=auto;orthogonalLoop=1;fontSize=11;endArrow=block;endFill=0;endSize=8;strokeWidth=1;shadow=0;labelBackgroundColor=none;edgeStyle=orthogonalEdgeStyle;" parent="WIyWlLk6GJQsqaUBKTNV-1" source="WIyWlLk6GJQsqaUBKTNV-6" target="WIyWlLk6GJQsqaUBKTNV-12" edge="1">
          <mxGeometry y="-10" relative="1" as="geometry">
            <mxPoint as="offset" />
            <mxPoint x="240" y="150" as="targetPoint" />
          </mxGeometry>
        </mxCell>
        <mxCell id="WIyWlLk6GJQsqaUBKTNV-5" value="No" style="edgeStyle=orthogonalEdgeStyle;rounded=0;html=1;jettySize=auto;orthogonalLoop=1;fontSize=11;endArrow=block;endFill=0;endSize=8;strokeWidth=1;shadow=0;labelBackgroundColor=none;" parent="WIyWlLk6GJQsqaUBKTNV-1" source="WIyWlLk6GJQsqaUBKTNV-6" target="WIyWlLk6GJQsqaUBKTNV-7" edge="1">
          <mxGeometry y="10" relative="1" as="geometry">
            <mxPoint as="offset" />
          </mxGeometry>
        </mxCell>
        <mxCell id="WIyWlLk6GJQsqaUBKTNV-6" value="only wrap&lt;div&gt;root?&lt;/div&gt;" style="rhombus;whiteSpace=wrap;html=1;shadow=0;fontFamily=Helvetica;fontSize=12;align=center;strokeWidth=1;spacing=6;spacingTop=-4;fillColor=#dae8fc;strokeColor=#6c8ebf;" parent="WIyWlLk6GJQsqaUBKTNV-1" vertex="1">
          <mxGeometry x="300" y="139" width="100" height="80" as="geometry" />
        </mxCell>
        <mxCell id="T-6-eXVi3-3B-dA6ncXD-1" value="" style="edgeStyle=orthogonalEdgeStyle;rounded=0;orthogonalLoop=1;jettySize=auto;html=1;" edge="1" parent="WIyWlLk6GJQsqaUBKTNV-1" source="WIyWlLk6GJQsqaUBKTNV-7" target="T-6-eXVi3-3B-dA6ncXD-0">
          <mxGeometry relative="1" as="geometry" />
        </mxCell>
        <mxCell id="WIyWlLk6GJQsqaUBKTNV-7" value="_auto_wrap" style="rounded=1;whiteSpace=wrap;html=1;fontSize=12;glass=0;strokeWidth=1;shadow=0;" parent="WIyWlLk6GJQsqaUBKTNV-1" vertex="1">
          <mxGeometry x="500" y="159" width="90" height="40" as="geometry" />
        </mxCell>
        <mxCell id="T-6-eXVi3-3B-dA6ncXD-15" value="" style="edgeStyle=orthogonalEdgeStyle;rounded=0;orthogonalLoop=1;jettySize=auto;html=1;" edge="1" parent="WIyWlLk6GJQsqaUBKTNV-1" source="WIyWlLk6GJQsqaUBKTNV-11" target="T-6-eXVi3-3B-dA6ncXD-14">
          <mxGeometry relative="1" as="geometry" />
        </mxCell>
        <mxCell id="WIyWlLk6GJQsqaUBKTNV-11" value="" style="rounded=1;whiteSpace=wrap;html=1;fontSize=12;glass=0;strokeWidth=1;shadow=0;" parent="WIyWlLk6GJQsqaUBKTNV-1" vertex="1">
          <mxGeometry x="208" y="410" width="492" height="120" as="geometry" />
        </mxCell>
        <mxCell id="T-6-eXVi3-3B-dA6ncXD-4" style="edgeStyle=orthogonalEdgeStyle;rounded=0;orthogonalLoop=1;jettySize=auto;html=1;entryX=0.289;entryY=-0.008;entryDx=0;entryDy=0;entryPerimeter=0;" edge="1" parent="WIyWlLk6GJQsqaUBKTNV-1" source="WIyWlLk6GJQsqaUBKTNV-12" target="WIyWlLk6GJQsqaUBKTNV-11">
          <mxGeometry relative="1" as="geometry" />
        </mxCell>
        <mxCell id="WIyWlLk6GJQsqaUBKTNV-12" value="All param flatten" style="rounded=1;whiteSpace=wrap;html=1;fontSize=12;glass=0;strokeWidth=1;shadow=0;" parent="WIyWlLk6GJQsqaUBKTNV-1" vertex="1">
          <mxGeometry x="290" y="290" width="120" height="40" as="geometry" />
        </mxCell>
        <mxCell id="T-6-eXVi3-3B-dA6ncXD-3" value="" style="edgeStyle=orthogonalEdgeStyle;rounded=0;orthogonalLoop=1;jettySize=auto;html=1;" edge="1" parent="WIyWlLk6GJQsqaUBKTNV-1" source="T-6-eXVi3-3B-dA6ncXD-0" target="T-6-eXVi3-3B-dA6ncXD-2">
          <mxGeometry relative="1" as="geometry" />
        </mxCell>
        <mxCell id="T-6-eXVi3-3B-dA6ncXD-0" value="_recursive_wrap" style="rounded=1;whiteSpace=wrap;html=1;fontSize=12;glass=0;strokeWidth=1;shadow=0;" vertex="1" parent="WIyWlLk6GJQsqaUBKTNV-1">
          <mxGeometry x="490" y="240" width="110" height="40" as="geometry" />
        </mxCell>
        <mxCell id="T-6-eXVi3-3B-dA6ncXD-2" value="FullyShardedDataParallel&lt;div&gt;(sub module)&lt;/div&gt;" style="rounded=1;whiteSpace=wrap;html=1;fontSize=12;glass=0;strokeWidth=1;shadow=0;fillColor=#e1d5e7;strokeColor=#9673a6;" vertex="1" parent="WIyWlLk6GJQsqaUBKTNV-1">
          <mxGeometry x="460" y="330" width="170" height="40" as="geometry" />
        </mxCell>
        <mxCell id="T-6-eXVi3-3B-dA6ncXD-5" style="edgeStyle=orthogonalEdgeStyle;rounded=0;orthogonalLoop=1;jettySize=auto;html=1;entryX=0.684;entryY=0;entryDx=0;entryDy=0;entryPerimeter=0;" edge="1" parent="WIyWlLk6GJQsqaUBKTNV-1" source="T-6-eXVi3-3B-dA6ncXD-2" target="WIyWlLk6GJQsqaUBKTNV-11">
          <mxGeometry relative="1" as="geometry" />
        </mxCell>
        <mxCell id="T-6-eXVi3-3B-dA6ncXD-8" value="" style="edgeStyle=orthogonalEdgeStyle;rounded=0;orthogonalLoop=1;jettySize=auto;html=1;" edge="1" parent="WIyWlLk6GJQsqaUBKTNV-1" source="T-6-eXVi3-3B-dA6ncXD-6" target="T-6-eXVi3-3B-dA6ncXD-7">
          <mxGeometry relative="1" as="geometry" />
        </mxCell>
        <mxCell id="T-6-eXVi3-3B-dA6ncXD-6" value="_init_state" style="rounded=1;whiteSpace=wrap;html=1;" vertex="1" parent="WIyWlLk6GJQsqaUBKTNV-1">
          <mxGeometry x="230" y="440" width="75" height="39" as="geometry" />
        </mxCell>
        <mxCell id="T-6-eXVi3-3B-dA6ncXD-12" style="edgeStyle=orthogonalEdgeStyle;rounded=0;orthogonalLoop=1;jettySize=auto;html=1;exitX=1;exitY=0.5;exitDx=0;exitDy=0;entryX=0;entryY=0.5;entryDx=0;entryDy=0;" edge="1" parent="WIyWlLk6GJQsqaUBKTNV-1" source="T-6-eXVi3-3B-dA6ncXD-7" target="T-6-eXVi3-3B-dA6ncXD-11">
          <mxGeometry relative="1" as="geometry" />
        </mxCell>
        <mxCell id="T-6-eXVi3-3B-dA6ncXD-7" value="_init_param_handle_from_module" style="rounded=1;whiteSpace=wrap;html=1;" vertex="1" parent="WIyWlLk6GJQsqaUBKTNV-1">
          <mxGeometry x="340" y="434" width="200" height="50" as="geometry" />
        </mxCell>
        <mxCell id="T-6-eXVi3-3B-dA6ncXD-11" value="other_states" style="rounded=1;whiteSpace=wrap;html=1;" vertex="1" parent="WIyWlLk6GJQsqaUBKTNV-1">
          <mxGeometry x="580" y="436" width="100" height="45" as="geometry" />
        </mxCell>
        <mxCell id="T-6-eXVi3-3B-dA6ncXD-13" value="cast(nn.Module, module.module)._parameters[FLAT_PARAM] = handle.flat_param" style="text;html=1;align=center;verticalAlign=middle;whiteSpace=wrap;rounded=0;fillColor=#dae8fc;strokeColor=#6c8ebf;" vertex="1" parent="WIyWlLk6GJQsqaUBKTNV-1">
          <mxGeometry x="230" y="490" width="450" height="30" as="geometry" />
        </mxCell>
        <mxCell id="T-6-eXVi3-3B-dA6ncXD-14" value="" style="whiteSpace=wrap;html=1;rounded=1;glass=0;strokeWidth=1;shadow=0;fillColor=#ffe6cc;strokeColor=#d79b00;" vertex="1" parent="WIyWlLk6GJQsqaUBKTNV-1">
          <mxGeometry x="199" y="570" width="510" height="70" as="geometry" />
        </mxCell>
        <mxCell id="T-6-eXVi3-3B-dA6ncXD-20" style="edgeStyle=orthogonalEdgeStyle;rounded=0;orthogonalLoop=1;jettySize=auto;html=1;entryX=0;entryY=0.5;entryDx=0;entryDy=0;" edge="1" parent="WIyWlLk6GJQsqaUBKTNV-1" source="T-6-eXVi3-3B-dA6ncXD-16" target="T-6-eXVi3-3B-dA6ncXD-17">
          <mxGeometry relative="1" as="geometry" />
        </mxCell>
        <mxCell id="T-6-eXVi3-3B-dA6ncXD-16" value="_move_module&lt;span style=&quot;background-color: initial;&quot;&gt;_to_device&lt;/span&gt;" style="rounded=1;whiteSpace=wrap;html=1;" vertex="1" parent="WIyWlLk6GJQsqaUBKTNV-1">
          <mxGeometry x="230" y="586" width="170" height="40" as="geometry" />
        </mxCell>
        <mxCell id="T-6-eXVi3-3B-dA6ncXD-27" style="edgeStyle=orthogonalEdgeStyle;rounded=0;orthogonalLoop=1;jettySize=auto;html=1;entryX=0.5;entryY=0;entryDx=0;entryDy=0;" edge="1" parent="WIyWlLk6GJQsqaUBKTNV-1" source="T-6-eXVi3-3B-dA6ncXD-17" target="T-6-eXVi3-3B-dA6ncXD-21">
          <mxGeometry relative="1" as="geometry" />
        </mxCell>
        <mxCell id="T-6-eXVi3-3B-dA6ncXD-17" value="_init_param_handle_from_params" style="rounded=1;whiteSpace=wrap;html=1;" vertex="1" parent="WIyWlLk6GJQsqaUBKTNV-1">
          <mxGeometry x="500" y="586" width="190" height="40" as="geometry" />
        </mxCell>
        <mxCell id="T-6-eXVi3-3B-dA6ncXD-29" value="" style="edgeStyle=orthogonalEdgeStyle;rounded=0;orthogonalLoop=1;jettySize=auto;html=1;" edge="1" parent="WIyWlLk6GJQsqaUBKTNV-1" source="T-6-eXVi3-3B-dA6ncXD-21" target="T-6-eXVi3-3B-dA6ncXD-28">
          <mxGeometry relative="1" as="geometry" />
        </mxCell>
        <mxCell id="T-6-eXVi3-3B-dA6ncXD-21" value="" style="rounded=1;whiteSpace=wrap;html=1;fillColor=#d5e8d4;strokeColor=#82b366;" vertex="1" parent="WIyWlLk6GJQsqaUBKTNV-1">
          <mxGeometry x="199" y="710" width="521" height="80" as="geometry" />
        </mxCell>
        <mxCell id="T-6-eXVi3-3B-dA6ncXD-24" value="" style="edgeStyle=orthogonalEdgeStyle;rounded=0;orthogonalLoop=1;jettySize=auto;html=1;" edge="1" parent="WIyWlLk6GJQsqaUBKTNV-1" source="T-6-eXVi3-3B-dA6ncXD-22" target="T-6-eXVi3-3B-dA6ncXD-23">
          <mxGeometry relative="1" as="geometry" />
        </mxCell>
        <mxCell id="T-6-eXVi3-3B-dA6ncXD-22" value="handle=FlatParamHandle" style="rounded=1;whiteSpace=wrap;html=1;" vertex="1" parent="WIyWlLk6GJQsqaUBKTNV-1">
          <mxGeometry x="211" y="730" width="170" height="40" as="geometry" />
        </mxCell>
        <mxCell id="T-6-eXVi3-3B-dA6ncXD-26" value="" style="edgeStyle=orthogonalEdgeStyle;rounded=0;orthogonalLoop=1;jettySize=auto;html=1;" edge="1" parent="WIyWlLk6GJQsqaUBKTNV-1" source="T-6-eXVi3-3B-dA6ncXD-23" target="T-6-eXVi3-3B-dA6ncXD-25">
          <mxGeometry relative="1" as="geometry" />
        </mxCell>
        <mxCell id="T-6-eXVi3-3B-dA6ncXD-23" value="handle.shard()" style="whiteSpace=wrap;html=1;rounded=1;" vertex="1" parent="WIyWlLk6GJQsqaUBKTNV-1">
          <mxGeometry x="426" y="725" width="83" height="50" as="geometry" />
        </mxCell>
        <mxCell id="T-6-eXVi3-3B-dA6ncXD-25" value="state._handle=handle" style="whiteSpace=wrap;html=1;rounded=1;" vertex="1" parent="WIyWlLk6GJQsqaUBKTNV-1">
          <mxGeometry x="574" y="727.5" width="130" height="45" as="geometry" />
        </mxCell>
        <mxCell id="T-6-eXVi3-3B-dA6ncXD-28" value="" style="whiteSpace=wrap;html=1;fillColor=#fff2cc;strokeColor=#d6b656;rounded=1;" vertex="1" parent="WIyWlLk6GJQsqaUBKTNV-1">
          <mxGeometry x="151.5" y="853" width="616" height="97" as="geometry" />
        </mxCell>
        <mxCell id="T-6-eXVi3-3B-dA6ncXD-33" value="" style="edgeStyle=orthogonalEdgeStyle;rounded=0;orthogonalLoop=1;jettySize=auto;html=1;" edge="1" parent="WIyWlLk6GJQsqaUBKTNV-1" source="T-6-eXVi3-3B-dA6ncXD-31" target="T-6-eXVi3-3B-dA6ncXD-32">
          <mxGeometry relative="1" as="geometry" />
        </mxCell>
        <mxCell id="T-6-eXVi3-3B-dA6ncXD-31" value="flatten_tensors()" style="rounded=1;whiteSpace=wrap;html=1;" vertex="1" parent="WIyWlLk6GJQsqaUBKTNV-1">
          <mxGeometry x="175" y="879" width="110" height="42" as="geometry" />
        </mxCell>
        <mxCell id="T-6-eXVi3-3B-dA6ncXD-35" value="" style="edgeStyle=orthogonalEdgeStyle;rounded=0;orthogonalLoop=1;jettySize=auto;html=1;" edge="1" parent="WIyWlLk6GJQsqaUBKTNV-1" source="T-6-eXVi3-3B-dA6ncXD-32" target="T-6-eXVi3-3B-dA6ncXD-34">
          <mxGeometry relative="1" as="geometry" />
        </mxCell>
        <mxCell id="T-6-eXVi3-3B-dA6ncXD-32" value="FlatParameter&lt;div&gt;(handle.flat_param)&lt;/div&gt;" style="rounded=1;whiteSpace=wrap;html=1;" vertex="1" parent="WIyWlLk6GJQsqaUBKTNV-1">
          <mxGeometry x="344" y="879" width="110" height="42" as="geometry" />
        </mxCell>
        <mxCell id="T-6-eXVi3-3B-dA6ncXD-37" value="" style="edgeStyle=orthogonalEdgeStyle;rounded=0;orthogonalLoop=1;jettySize=auto;html=1;" edge="1" parent="WIyWlLk6GJQsqaUBKTNV-1" source="T-6-eXVi3-3B-dA6ncXD-34" target="T-6-eXVi3-3B-dA6ncXD-36">
          <mxGeometry relative="1" as="geometry" />
        </mxCell>
        <mxCell id="T-6-eXVi3-3B-dA6ncXD-34" value="init_metadata" style="rounded=1;whiteSpace=wrap;html=1;" vertex="1" parent="WIyWlLk6GJQsqaUBKTNV-1">
          <mxGeometry x="493" y="879" width="110" height="42" as="geometry" />
        </mxCell>
        <mxCell id="T-6-eXVi3-3B-dA6ncXD-36" value="_get_unflat_&lt;div&gt;views_unaligned&lt;/div&gt;" style="rounded=1;whiteSpace=wrap;html=1;" vertex="1" parent="WIyWlLk6GJQsqaUBKTNV-1">
          <mxGeometry x="633" y="879" width="110" height="42" as="geometry" />
        </mxCell>
        <mxCell id="T-6-eXVi3-3B-dA6ncXD-38" value="torch.cat" style="text;html=1;align=center;verticalAlign=middle;whiteSpace=wrap;rounded=0;" vertex="1" parent="WIyWlLk6GJQsqaUBKTNV-1">
          <mxGeometry x="283" y="870" width="60" height="30" as="geometry" />
        </mxCell>
      </root>
    </mxGraphModel>
  </diagram>
</mxfile>
